HIERARCHY
ROOT root
{
	OFFSET	0	13.1	24.9
	CHANNELS 6  Xposition Yposition Zposition Xrotation Yrotation Zrotation
	JOINT spine_1
	{
		OFFSET	0	9.99999	0
		CHANNELS 3  Xrotation Yrotation Zrotation
		JOINT spine_2
		{
			OFFSET	0	112	-10
			CHANNELS 3  Xrotation Yrotation Zrotation
			JOINT spine_3
			{
				OFFSET	0	206.5	19.3
				CHANNELS 3  Xrotation Yrotation Zrotation
				JOINT spine_4
				{
					OFFSET	0	110.4	14.6
					CHANNELS 3  Xrotation Yrotation Zrotation
					JOINT neck_1
					{
						OFFSET	0	71.8	-50.3
						CHANNELS 3  Xrotation Yrotation Zrotation
						JOINT neck_2
						{
							OFFSET	0	86.2	-25.8
							CHANNELS 3  Xrotation Yrotation Zrotation
							JOINT head_ee
							{
								OFFSET	0	179.8	-8.7
								CHANNELS 3  Xrotation Yrotation Zrotation
								End Site
								{
									OFFSET	1	0	0
								}
							}
						}
					}
					JOINT left_clavicle
					{
						OFFSET	-43.2	22.4	-70.8
						CHANNELS 3  Xrotation Yrotation Zrotation
						JOINT left_shoulder
						{
							OFFSET	-93.9	-5.79999	48.7
							CHANNELS 3  Xrotation Yrotation Zrotation
							JOINT left_elbow
							{
								OFFSET	-291.4	-30.8	15.2
								CHANNELS 3  Xrotation Yrotation Zrotation
								JOINT left_lowarm_twist
								{
									OFFSET	-110.7	-3.89999	13.6
									CHANNELS 3  Xrotation Yrotation Zrotation
									JOINT left_hand
									{
										OFFSET	-110.7	-3.89999	13.6
										CHANNELS 3  Xrotation Yrotation Zrotation
										JOINT left_ee
										{
											OFFSET	-80.8	-5.10001	12.1
											CHANNELS 3  Xrotation Yrotation Zrotation
											End Site
											{
												OFFSET	1	0	0
											}
										}
									}
								}
							}
						}
					}
					JOINT right_clavicle
					{
						OFFSET	43.2	22.4	-70.8
						CHANNELS 3  Xrotation Yrotation Zrotation
						JOINT right_shoulder
						{
							OFFSET	93.9	-5.79999	48.7
							CHANNELS 3  Xrotation Yrotation Zrotation
							JOINT right_elbow
							{
								OFFSET	291.4	-30.8	15.2
								CHANNELS 3  Xrotation Yrotation Zrotation
								JOINT right_lowarm_twist
								{
									OFFSET	110.7	-3.89999	13.6
									CHANNELS 3  Xrotation Yrotation Zrotation
									JOINT right_hand
									{
										OFFSET	110.7	-3.89999	13.6
										CHANNELS 3  Xrotation Yrotation Zrotation
										JOINT right_ee
										{
											OFFSET	80.8	-5.10001	12.1
											CHANNELS 3  Xrotation Yrotation Zrotation
											End Site
											{
												OFFSET	1	0	0
											}
										}
									}
								}
							}
						}
					}
				}
			}
		}
	}
	JOINT left_hip
	{
		OFFSET	-82.8	-127.5	0.300001
		CHANNELS 3  Xrotation Yrotation Zrotation
		JOINT left_knee
		{
			OFFSET	-28.2	-396.7	2.2
			CHANNELS 3  Xrotation Yrotation Zrotation
			JOINT left_ankle
			{
				OFFSET	-11.7	-411.3	35.4
				CHANNELS 3  Xrotation Yrotation Zrotation
				JOINT left_toes
				{
					OFFSET	0	-60	-88.6
					CHANNELS 3  Xrotation Yrotation Zrotation
					JOINT left_foot_ee
					{
						OFFSET	-22.5	-16.5	-42.2
						CHANNELS 3  Xrotation Yrotation Zrotation
						End Site
						{
							OFFSET	1	0	0
						}
					}
				}
			}
		}
	}
	JOINT right_hip
	{
		OFFSET	82.8	-127.5	0.300001
		CHANNELS 3  Xrotation Yrotation Zrotation
		JOINT right_knee
		{
			OFFSET	28.2	-396.7	2.2
			CHANNELS 3  Xrotation Yrotation Zrotation
			JOINT right_ankle
			{
				OFFSET	11.7	-411.3	35.4
				CHANNELS 3  Xrotation Yrotation Zrotation
				JOINT right_toes
				{
					OFFSET	0	-60	-88.6
					CHANNELS 3  Xrotation Yrotation Zrotation
					JOINT right_foot_ee
					{
						OFFSET	22.5	-16.5	-42.2
						CHANNELS 3  Xrotation Yrotation Zrotation
						End Site
						{
							OFFSET	1	0	0
						}
					}
				}
			}
		}
	}
}
MOTION
Frames: 15
Frame Time: 0.02
1050.11 720.948 -1637.36 -3.39409 47.1454 4.84128 3.32037 0.385647 1.21581 3.32114 0.307506 1.23788 3.32751 0.114438 1.27036 3.3254 0.313615 1.23635 -2.30931 3.03411 -3.31157 -2.23267 8.0996 -3.06472 -0.0 0.0 -0.0 -3.69859 5.86096 -6.06166 2.1239 -12.8019 68.8453 1.69449 -40.0067 0.616895 -3.66806 -0.143595 0.446249 -1.49138 -5.54567 -12.5057 -0.0 0.0 -0.0 9.80586 3.38071 -19.3746 -23.6181 25.6745 -68.6515 0.735096 20.0088 -0.129677 23.8687 -0.214834 3.01947 1.77636 -25.9762 -20.6542 0.0 0.0 0.0 0.664351 -26.8488 -2.57718 6.57509 -0.326033 -0.955403 40.7117 25.098 -5.23903 30.3327 -0.0 -0.0 -0.0 0.0 -0.0 31.1257 63.2992 -20.0727 -15.4435 -0.322072 -2.34093 29.5251 -28.3713 4.14182 29.9245 -0.0 -0.0 0.0 0.0 0.0 
1046.18 712.105 -1639.83 -3.59788 46.7716 4.70341 3.50065 0.428505 1.34219 3.50159 0.342238 1.36673 3.50937 0.133505 1.40259 3.50679 0.353321 1.36391 -3.257 2.31078 -2.93131 -3.20782 6.47902 -2.70093 -0.0 0.0 -0.0 -3.66279 5.40776 -6.08466 1.9177 -12.6007 69.4532 1.6858 -39.8618 0.611318 -4.39752 -0.175546 0.533863 -1.03524 -6.75124 -9.89929 -0.0 0.0 -0.0 10.2178 5.22346 -20.2917 -23.5463 26.0132 -67.6551 0.72695 19.8044 -0.126904 23.0685 -0.228115 2.91813 2.31508 -24.9128 -23.7195 0.0 0.0 0.0 0.211448 -25.7145 -2.68095 7.56544 -0.384588 -1.0959 42.5059 25.2259 -5.40986 31.543 -0.0 -0.0 -0.0 0.0 -0.0 29.1095 64.6507 -17.7587 -14.2186 -0.319699 -2.15301 32.5899 -27.3838 4.46833 30.1936 -0.0 -0.0 0.0 0.0 0.0 
1040.15 716.536 -1647.33 -5.85704 48.2716 5.82726 4.00011 0.452744 1.66983 4.0016 0.345586 1.69525 4.01097 0.102706 1.72705 4.00701 0.374133 1.68918 -2.55366 2.43855 -1.78607 -2.52388 5.82117 -1.52916 -0.0 0.0 -0.0 -3.86176 5.64869 -6.40606 1.49262 -13.148 69.6253 1.63335 -38.9738 0.578014 -5.92611 -0.24611 0.716122 -0.594744 -0.315448 -4.11118 -0.0 0.0 -0.0 10.0766 1.29894 -19.8729 -24.4241 28.2911 -68.0837 0.758879 20.6025 -0.137931 21.0249 -0.255597 2.65854 0.908491 -28.7138 -16.3173 0.0 0.0 0.0 2.5468 -26.3413 -1.41016 5.93677 -0.289588 -0.86433 42.4911 26.0172 -5.43695 33.637 -0.0 -0.0 -0.0 0.0 -0.0 29.2236 65.3132 -17.3388 -15.5072 -0.322085 -2.35071 33.938 -26.7015 4.59753 32.7284 -0.0 -0.0 0.0 0.0 0.0 
1031.34 717.018 -1649.94 -6.37703 48.4693 5.21588 4.23386 0.4679 1.67785 4.23535 0.360201 1.70422 4.24511 0.123017 1.73751 4.24111 0.395841 1.6963 -3.36341 2.61512 -1.66668 -3.33712 6.05257 -1.33594 -0.0 0.0 -0.0 -3.73406 7.21718 -5.85616 0.959451 -13.8382 70.0551 1.48489 -36.3348 0.487297 -7.73029 -0.335631 0.928759 0.078646 -3.64185 -1.01211 -0.0 0.0 -0.0 9.61982 -0.133795 -18.8666 -23.6021 27.4631 -68.0171 0.799221 21.599 -0.152455 24.1399 -0.210013 3.05378 1.60058 -23.6472 -18.9564 0.0 0.0 0.0 4.61019 -18.432 1.1556 4.36136 -0.204013 -0.637901 42.1054 25.768 -5.39245 34.8583 -0.0 -0.0 -0.0 0.0 -0.0 25.9554 61.7701 -14.2454 -17.4218 -0.31742 -2.64441 38.1118 -27.356 5.0613 32.5564 -0.0 -0.0 0.0 0.0 0.0 
1033.53 717.243 -1649.47 -6.3647 50.0992 5.7575 4.14805 0.140931 1.68907 4.14963 0.0331813 1.69461 4.14962 -0.202542 1.68279 4.14568 0.0657267 1.69366 -6.47068 2.29897 -3.38793 -6.42913 6.73203 -2.96036 -0.0 0.0 -0.0 -3.61429 5.97632 -5.88334 0.386237 -14.2445 71.0827 1.39884 -34.7179 0.43729 -5.28071 -0.215723 0.639396 0.261041 -4.02018 0.0552804 -0.0 0.0 -0.0 10.4198 2.47476 -20.6422 -24.5505 28.6335 -66.0985 0.78107 21.1523 -0.145839 21.8479 -0.245644 2.7632 1.31377 -27.5726 -18.3267 0.0 0.0 0.0 5.18245 -21.651 0.644922 3.32336 -0.151054 -0.487488 42.8843 26.0933 -5.47562 37.1873 -0.0 -0.0 -0.0 0.0 -0.0 24.8933 63.745 -13.5522 -15.0947 -0.321805 -2.28741 39.2902 -27.5365 5.18678 30.142 -0.0 -0.0 0.0 0.0 0.0 
1029.8 718.086 -1654.01 -7.43454 50.3132 6.59831 4.45395 0.167523 1.67223 4.4555 0.0607903 1.6795 4.45619 -0.16414 1.67257 4.4523 0.102033 1.6775 -7.69309 0.400443 -2.53836 -7.67398 2.5537 -2.43774 -0.0 0.0 -0.0 -3.75797 7.13726 -5.91573 0.215031 -14.9465 71.4088 1.32447 -33.2673 0.395703 -5.11518 -0.208069 0.619663 0.765428 -4.25678 3.35351 -0.0 0.0 -0.0 10.3358 4.33034 -20.5243 -24.3621 30.2183 -67.6319 0.769796 20.8735 -0.141797 21.2565 -0.252949 2.688 0.967352 -28.3702 -16.5525 0.0 0.0 0.0 5.16024 -21.7908 0.320227 3.70751 -0.170334 -0.543262 42.8719 25.7525 -5.46192 38.5404 -0.0 -0.0 -0.0 0.0 -0.0 23.8179 62.2839 -12.6877 -15.1501 -0.321869 -2.29592 40.0276 -27.3089 5.25124 30.1135 -0.0 -0.0 0.0 0.0 0.0 
1032.5 718.492 -1658.87 -7.82759 51.6642 6.35245 4.50127 0.129013 1.90186 4.50328 0.00775397 1.90621 4.50209 -0.24552 1.89036 4.49711 0.0560518 1.9054 -8.59199 -0.276288 -3.24759 -8.56178 1.75127 -3.26551 -0.0 0.0 -0.0 -3.82654 6.21798 -6.22642 -0.67996 -15.7361 71.6501 1.25607 -31.8894 0.358875 -4.86987 -0.196831 0.59038 1.10549 -4.17014 5.68683 -0.0 0.0 -0.0 10.8211 4.85485 -21.5821 -24.8682 31.5749 -66.418 0.791503 21.4094 -0.149626 20.936 -0.256582 2.64723 0.715598 -29.1701 -15.3652 0.0 0.0 0.0 5.55616 -24.4888 0.724628 3.43301 -0.156519 -0.50342 42.7423 26.4556 -5.47629 39.3729 -0.0 -0.0 -0.0 0.0 -0.0 23.2444 61.0336 -11.8767 -15.9135 -0.321915 -2.41305 40.7853 -27.8718 5.34664 30.4366 -0.0 -0.0 0.0 0.0 0.0 
1021.84 720.194 -1664.68 -7.84372 51.6988 6.33944 4.72972 0.11368 1.89047 4.73171 -0.00682371 1.89387 4.72993 -0.25087 1.8772 4.72502 0.0486918 1.89326 -9.49491 -0.809192 -4.65484 -9.43349 1.66686 -4.75222 -0.0 0.0 -0.0 -3.69021 8.74321 -5.4692 -1.18767 -16.1357 72.0173 1.1514 -29.6981 0.305278 -6.02257 -0.250726 0.727559 0.873817 -0.498353 5.64209 -0.0 0.0 -0.0 10.269 0.249702 -20.2246 -22.9806 29.9518 -67.0863 0.899937 24.0271 -0.191514 20.0067 -0.265831 2.52889 -0.155161 -24.7134 -8.93132 0.0 0.0 0.0 5.13131 -19.6772 1.02542 3.32336 -0.151054 -0.487488 43.0804 25.4238 -5.46881 40.257 -0.0 -0.0 -0.0 0.0 -0.0 21.2805 58.8877 -10.7762 -16.2516 -0.321437 -2.46491 38.0694 -28.1445 5.08568 29.7244 -0.0 -0.0 0.0 0.0 0.0 
1016.53 720.169 -1667.14 -8.41582 53.0596 6.43826 5.04486 0.208315 1.95631 5.04698 0.0834329 1.96559 5.048 -0.159679 1.96087 5.04267 0.151947 1.96149 -10.5494 -1.19989 -4.30653 -10.4969 0.61284 -4.49024 -0.0 0.0 -0.0 -3.4034 7.99519 -5.10486 -2.88553 -15.6978 73.095 1.11202 -28.8478 0.286021 -5.80802 -0.240485 0.702107 1.65788 -3.33507 9.78633 -0.0 0.0 -0.0 10.7784 0.949286 -21.3279 -26.621 32.1401 -64.4198 0.88969 23.7841 -0.187362 17.6797 -0.280556 2.23205 -0.769077 -25.2039 -5.63003 0.0 0.0 0.0 4.91211 -16.9986 1.95289 5.02308 -0.239196 -0.733287 42.6973 25.648 -5.4423 40.1378 -0.0 -0.0 -0.0 0.0 -0.0 18.9575 54.4214 -8.52451 -16.6094 -0.320598 -2.51981 37.7797 -28.2418 5.05939 29.1187 -0.0 -0.0 0.0 0.0 0.0 
1008.31 718.371 -1675.42 -9.80955 54.5166 7.4108 5.50589 0.209336 2.08972 5.50831 0.0759679 2.0988 5.50869 -0.1667 2.09355 5.50261 0.165955 2.09361 -10.36 -1.86828 -4.68763 -10.2982 -0.376376 -5.03191 -0.0 0.0 -0.0 -3.40822 8.31833 -5.05048 -4.38662 -15.8563 73.2308 1.02916 -27.0125 0.247204 -6.38895 -0.268435 0.770934 1.88556 -1.82063 11.9662 -0.0 0.0 -0.0 11.0637 2.61195 -22.0191 -28.9583 32.0539 -64.2187 0.934476 24.8396 -0.205801 16.5101 -0.283402 2.0827 -0.190549 -27.5487 -9.77532 0.0 0.0 0.0 4.30039 -23.1869 1.14493 5.69585 -0.276098 -0.829855 42.2518 26.5006 -5.43288 40.1356 -0.0 -0.0 -0.0 0.0 -0.0 16.7212 51.5864 -5.89408 -16.3309 -0.321281 -2.47709 39.3648 -25.9924 5.13927 30.1205 -0.0 -0.0 0.0 0.0 0.0 
1003.58 720.107 -1679.69 -10.5917 56.2654 8.40741 5.69216 0.0570542 2.11389 5.69464 -0.0775434 2.11324 5.68923 -0.314364 2.09118 5.68313 0.0197671 2.11457 -10.1601 -1.8264 -4.58141 -10.1011 -0.351528 -4.91897 -0.0 0.0 -0.0 -3.58956 9.55457 -5.12698 -5.40774 -16.1376 73.6678 0.984473 -25.997 0.227262 -6.52294 -0.274981 0.786769 1.99331 -0.957463 13.0565 -0.0 0.0 -0.0 11.1497 2.20544 -22.1831 -30.9152 32.2992 -63.1665 1.01428 26.6765 -0.240487 15.3104 -0.283153 1.92946 -0.444874 -28.0321 -8.54873 0.0 0.0 0.0 3.79115 -22.5507 0.686447 6.35264 -0.313217 -0.923711 41.4264 26.1761 -5.34392 40.1414 -0.0 -0.0 -0.0 0.0 -0.0 15.3678 49.6711 -5.22516 -15.9716 -0.321855 -2.42196 39.1015 -25.9556 5.11208 30.0889 -0.0 -0.0 0.0 0.0 0.0 
997.581 722.865 -1688.36 -11.3008 56.5293 8.87362 6.04994 0.230191 2.16546 6.05254 0.0919641 2.17571 6.05306 -0.139028 2.17321 6.04652 0.205852 2.1679 -10.4124 -1.8918 -4.5929 -10.3533 -0.488924 -4.94552 -0.0 0.0 -0.0 -3.63704 9.31793 -5.2585 -7.01761 -16.3275 74.0166 0.846851 -22.7581 0.170436 -6.79814 -0.288541 0.819244 1.90385 0.717154 13.1124 -0.0 0.0 -0.0 11.0544 0.504043 -21.8842 -31.0587 31.4669 -63.3205 1.02906 27.0104 -0.247162 13.6861 -0.277705 1.72208 -0.975614 -27.8813 -5.58041 0.0 0.0 0.0 4.06442 -15.9615 1.44972 6.92806 -0.346624 -1.00559 42.484 25.9975 -5.43557 40.1495 -0.0 -0.0 -0.0 0.0 -0.0 14.7481 48.8606 -5.25402 -15.42 -0.322064 -2.33733 35.1081 -27.0133 4.73454 27.8056 -0.0 -0.0 0.0 0.0 0.0 
990.981 720.625 -1695.22 -12.43 57.4604 9.85265 6.14314 0.127047 2.30873 6.1461 -0.0200815 2.31214 6.14187 -0.261433 2.2974 6.13452 0.10458 2.30986 -8.21375 -2.19205 -4.67791 -8.15299 -0.798832 -5.10979 -0.0 0.0 -0.0 -3.34307 9.48471 -4.707 -10.0832 -16.2847 73.3797 0.837717 -22.5373 0.166919 -6.38128 -0.268061 0.770027 2.34272 0.667748 16.122 -0.0 0.0 -0.0 10.9893 -1.14365 -21.637 -31.3456 29.7259 -62.8098 1.15578 29.7918 -0.307451 11.7041 -0.263098 1.46935 -0.783655 -24.568 -5.28782 0.0 0.0 0.0 3.80155 -15.6206 1.30868 7.09249 -0.356321 -1.02893 42.5648 26.1479 -5.44852 40.0723 -0.0 -0.0 -0.0 0.0 -0.0 13.2651 47.1453 -4.37463 -13.8249 -0.318083 -2.09263 35.2433 -27.3234 4.75921 28.9526 -0.0 -0.0 0.0 0.0 0.0 
983.915 722.494 -1702.4 -13.8565 57.5519 10.7107 6.09327 0.162994 2.46718 6.09666 0.00571927 2.47255 6.09303 -0.254621 2.45942 6.08462 0.136872 2.46877 -8.58197 -2.10226 -3.39598 -8.5508 -1.56098 -3.82349 -0.0 0.0 -0.0 -3.50039 10.2422 -4.8326 -11.2285 -16.141 73.9346 0.818779 -22.0773 0.15973 -5.17473 -0.210816 0.626764 2.37761 0.595978 16.3364 -0.0 0.0 -0.0 10.6437 -1.37014 -20.9043 -31.4689 30.8757 -62.7313 1.28367 32.4505 -0.373569 10.2815 -0.247229 1.28834 -0.932815 -23.3736 -3.93916 0.0 0.0 0.0 3.39588 -17.5174 1.581 6.90577 -0.345314 -1.00243 42.3977 25.3368 -5.40391 40.0215 -0.0 -0.0 -0.0 0.0 -0.0 13.0974 46.058 -3.93846 -14.0774 -0.319167 -2.13135 33.4837 -26.8753 4.55276 28.7445 -0.0 -0.0 0.0 0.0 0.0 
975.806 722.502 -1713.04 -13.3468 58.1975 9.78704 6.1914 0.340972 2.76439 6.19564 0.164445 2.78047 6.19858 -0.123927 2.78257 6.18791 0.316912 2.76725 -8.64454 -2.20572 -3.3294 -8.61488 -1.80553 -3.78158 -0.0 0.0 -0.0 -4.60274 12.1176 -6.33264 -11.103 -11.7571 74.1996 0.843898 -22.6868 0.169296 -4.5041 -0.180308 0.54663 1.92256 1.3901 13.5065 -0.0 0.0 -0.0 10.6858 -6.10957 -20.5899 -31.3149 28.0015 -63.2067 1.26212 32.013 -0.362076 7.32708 -0.199941 0.913958 -1.27296 -16.1848 1.22052 0.0 0.0 0.0 2.53594 -12.6135 1.68053 7.22914 -0.364431 -1.0483 40.9829 25.4463 -5.27644 37.802 -0.0 -0.0 -0.0 0.0 -0.0 12.2388 43.3501 -3.75662 -15.8429 -0.321977 -2.4022 35.0273 -26.8447 4.72044 28.9298 -0.0 -0.0 0.0 0.0 0.0 
